<mxfile host="app.diagrams.net" modified="2024-04-08T18:57:28.243Z" agent="Mozilla/5.0 (Windows NT 10.0; Win64; x64) AppleWebKit/537.36 (KHTML, like Gecko) Chrome/122.0.0.0 Safari/537.36" etag="pbzJ32XUHaUIVxfyDiXg" version="23.0.2" type="device">
  <diagram id="R2lEEEUBdFMjLlhIrx00" name="Page-1">
    <mxGraphModel dx="2390" dy="1287" grid="1" gridSize="10" guides="1" tooltips="1" connect="1" arrows="1" fold="1" page="1" pageScale="1" pageWidth="850" pageHeight="1100" math="0" shadow="0" extFonts="Permanent Marker^https://fonts.googleapis.com/css?family=Permanent+Marker">
      <root>
        <mxCell id="0" />
        <mxCell id="1" parent="0" />
        <mxCell id="j4RjR1s959F3z7XplXAv-60" value="" style="rounded=0;whiteSpace=wrap;html=1;" vertex="1" parent="1">
          <mxGeometry x="460" y="140" width="680" height="840" as="geometry" />
        </mxCell>
        <mxCell id="j4RjR1s959F3z7XplXAv-7" style="edgeStyle=orthogonalEdgeStyle;rounded=0;orthogonalLoop=1;jettySize=auto;html=1;entryX=0;entryY=0.3333333333333333;entryDx=0;entryDy=0;entryPerimeter=0;" edge="1" parent="1" source="j4RjR1s959F3z7XplXAv-1" target="j4RjR1s959F3z7XplXAv-2">
          <mxGeometry relative="1" as="geometry">
            <mxPoint x="310" y="490.0000000000001" as="targetPoint" />
          </mxGeometry>
        </mxCell>
        <mxCell id="j4RjR1s959F3z7XplXAv-9" style="edgeStyle=orthogonalEdgeStyle;rounded=0;orthogonalLoop=1;jettySize=auto;html=1;" edge="1" parent="1" source="j4RjR1s959F3z7XplXAv-1" target="j4RjR1s959F3z7XplXAv-3">
          <mxGeometry relative="1" as="geometry" />
        </mxCell>
        <mxCell id="j4RjR1s959F3z7XplXAv-1" value="Usuario" style="shape=umlActor;verticalLabelPosition=bottom;verticalAlign=top;html=1;outlineConnect=0;" vertex="1" parent="1">
          <mxGeometry x="230" y="460" width="30" height="60" as="geometry" />
        </mxCell>
        <mxCell id="j4RjR1s959F3z7XplXAv-2" value="Centro" style="shape=umlActor;verticalLabelPosition=bottom;verticalAlign=top;html=1;outlineConnect=0;" vertex="1" parent="1">
          <mxGeometry x="350" y="260" width="30" height="60" as="geometry" />
        </mxCell>
        <mxCell id="j4RjR1s959F3z7XplXAv-3" value="Empresa" style="shape=umlActor;verticalLabelPosition=bottom;verticalAlign=top;html=1;outlineConnect=0;" vertex="1" parent="1">
          <mxGeometry x="350" y="460" width="30" height="60" as="geometry" />
        </mxCell>
        <mxCell id="j4RjR1s959F3z7XplXAv-4" value="Alumno" style="shape=umlActor;verticalLabelPosition=bottom;verticalAlign=top;html=1;outlineConnect=0;" vertex="1" parent="1">
          <mxGeometry x="350" y="660" width="30" height="60" as="geometry" />
        </mxCell>
        <mxCell id="j4RjR1s959F3z7XplXAv-8" style="edgeStyle=orthogonalEdgeStyle;rounded=0;orthogonalLoop=1;jettySize=auto;html=1;entryX=0;entryY=0.3333333333333333;entryDx=0;entryDy=0;entryPerimeter=0;" edge="1" parent="1" source="j4RjR1s959F3z7XplXAv-1" target="j4RjR1s959F3z7XplXAv-4">
          <mxGeometry relative="1" as="geometry" />
        </mxCell>
        <mxCell id="j4RjR1s959F3z7XplXAv-11" value="REGISTRO&lt;br&gt;(EMPRESA)" style="ellipse;whiteSpace=wrap;html=1;" vertex="1" parent="1">
          <mxGeometry x="515" y="540" width="120" height="80" as="geometry" />
        </mxCell>
        <mxCell id="j4RjR1s959F3z7XplXAv-27" style="edgeStyle=orthogonalEdgeStyle;rounded=0;orthogonalLoop=1;jettySize=auto;html=1;exitX=0.5;exitY=1;exitDx=0;exitDy=0;entryX=0.5;entryY=0;entryDx=0;entryDy=0;dashed=1;" edge="1" parent="1" source="j4RjR1s959F3z7XplXAv-12" target="j4RjR1s959F3z7XplXAv-11">
          <mxGeometry relative="1" as="geometry" />
        </mxCell>
        <mxCell id="j4RjR1s959F3z7XplXAv-28" value="&amp;lt;&amp;lt;INCLUDES&amp;gt;&amp;gt;" style="edgeLabel;html=1;align=center;verticalAlign=middle;resizable=0;points=[];" vertex="1" connectable="0" parent="j4RjR1s959F3z7XplXAv-27">
          <mxGeometry x="-0.1" y="1" relative="1" as="geometry">
            <mxPoint as="offset" />
          </mxGeometry>
        </mxCell>
        <mxCell id="j4RjR1s959F3z7XplXAv-12" value="INICIO SESIÓN&lt;br&gt;(EMPRESA)" style="ellipse;whiteSpace=wrap;html=1;" vertex="1" parent="1">
          <mxGeometry x="515" y="400" width="120" height="80" as="geometry" />
        </mxCell>
        <mxCell id="j4RjR1s959F3z7XplXAv-19" value="INSERTAR DATOS" style="ellipse;whiteSpace=wrap;html=1;" vertex="1" parent="1">
          <mxGeometry x="515" y="260" width="120" height="80" as="geometry" />
        </mxCell>
        <mxCell id="j4RjR1s959F3z7XplXAv-21" value="" style="endArrow=none;html=1;rounded=0;entryX=0;entryY=0.5;entryDx=0;entryDy=0;" edge="1" parent="1" target="j4RjR1s959F3z7XplXAv-19">
          <mxGeometry width="50" height="50" relative="1" as="geometry">
            <mxPoint x="390" y="300" as="sourcePoint" />
            <mxPoint x="440" y="250" as="targetPoint" />
          </mxGeometry>
        </mxCell>
        <mxCell id="j4RjR1s959F3z7XplXAv-22" value="Servidor" style="shape=umlActor;verticalLabelPosition=bottom;verticalAlign=top;html=1;outlineConnect=0;" vertex="1" parent="1">
          <mxGeometry x="1210" y="440" width="30" height="60" as="geometry" />
        </mxCell>
        <mxCell id="j4RjR1s959F3z7XplXAv-24" value="" style="endArrow=none;html=1;rounded=0;exitX=1;exitY=0.5;exitDx=0;exitDy=0;" edge="1" parent="1" source="j4RjR1s959F3z7XplXAv-19">
          <mxGeometry width="50" height="50" relative="1" as="geometry">
            <mxPoint x="990" y="410" as="sourcePoint" />
            <mxPoint x="1200" y="460" as="targetPoint" />
            <Array as="points">
              <mxPoint x="1140" y="310" />
            </Array>
          </mxGeometry>
        </mxCell>
        <mxCell id="j4RjR1s959F3z7XplXAv-29" value="REGISTRO&lt;br&gt;(Alumno)" style="ellipse;whiteSpace=wrap;html=1;" vertex="1" parent="1">
          <mxGeometry x="515" y="840" width="120" height="80" as="geometry" />
        </mxCell>
        <mxCell id="j4RjR1s959F3z7XplXAv-30" style="edgeStyle=orthogonalEdgeStyle;rounded=0;orthogonalLoop=1;jettySize=auto;html=1;exitX=0.5;exitY=1;exitDx=0;exitDy=0;entryX=0.5;entryY=0;entryDx=0;entryDy=0;dashed=1;" edge="1" parent="1" source="j4RjR1s959F3z7XplXAv-32" target="j4RjR1s959F3z7XplXAv-29">
          <mxGeometry relative="1" as="geometry" />
        </mxCell>
        <mxCell id="j4RjR1s959F3z7XplXAv-31" value="&amp;lt;&amp;lt;INCLUDES&amp;gt;&amp;gt;" style="edgeLabel;html=1;align=center;verticalAlign=middle;resizable=0;points=[];" vertex="1" connectable="0" parent="j4RjR1s959F3z7XplXAv-30">
          <mxGeometry x="-0.1" y="1" relative="1" as="geometry">
            <mxPoint as="offset" />
          </mxGeometry>
        </mxCell>
        <mxCell id="j4RjR1s959F3z7XplXAv-32" value="INICIO SESIÓN&lt;br&gt;(Alumno)" style="ellipse;whiteSpace=wrap;html=1;" vertex="1" parent="1">
          <mxGeometry x="515" y="700" width="120" height="80" as="geometry" />
        </mxCell>
        <mxCell id="j4RjR1s959F3z7XplXAv-33" value="" style="endArrow=none;html=1;rounded=0;entryX=0;entryY=0.5;entryDx=0;entryDy=0;" edge="1" parent="1" target="j4RjR1s959F3z7XplXAv-12">
          <mxGeometry width="50" height="50" relative="1" as="geometry">
            <mxPoint x="400" y="500" as="sourcePoint" />
            <mxPoint x="450" y="450" as="targetPoint" />
          </mxGeometry>
        </mxCell>
        <mxCell id="j4RjR1s959F3z7XplXAv-34" value="" style="endArrow=none;html=1;rounded=0;entryX=0;entryY=0.5;entryDx=0;entryDy=0;" edge="1" parent="1" target="j4RjR1s959F3z7XplXAv-11">
          <mxGeometry width="50" height="50" relative="1" as="geometry">
            <mxPoint x="400" y="500" as="sourcePoint" />
            <mxPoint x="480" y="480" as="targetPoint" />
          </mxGeometry>
        </mxCell>
        <mxCell id="j4RjR1s959F3z7XplXAv-35" value="" style="endArrow=none;html=1;rounded=0;entryX=0;entryY=0.5;entryDx=0;entryDy=0;" edge="1" parent="1" target="j4RjR1s959F3z7XplXAv-32">
          <mxGeometry width="50" height="50" relative="1" as="geometry">
            <mxPoint x="410" y="700" as="sourcePoint" />
            <mxPoint x="460" y="650" as="targetPoint" />
          </mxGeometry>
        </mxCell>
        <mxCell id="j4RjR1s959F3z7XplXAv-36" value="" style="endArrow=none;html=1;rounded=0;entryX=0;entryY=0.5;entryDx=0;entryDy=0;" edge="1" parent="1" target="j4RjR1s959F3z7XplXAv-29">
          <mxGeometry width="50" height="50" relative="1" as="geometry">
            <mxPoint x="410" y="700" as="sourcePoint" />
            <mxPoint x="450" y="750" as="targetPoint" />
          </mxGeometry>
        </mxCell>
        <mxCell id="j4RjR1s959F3z7XplXAv-38" value="BUSCAR EMPRESAS" style="ellipse;whiteSpace=wrap;html=1;" vertex="1" parent="1">
          <mxGeometry x="770" y="610" width="120" height="80" as="geometry" />
        </mxCell>
        <mxCell id="j4RjR1s959F3z7XplXAv-39" value="MODIFICAR DATOS" style="ellipse;whiteSpace=wrap;html=1;" vertex="1" parent="1">
          <mxGeometry x="770" y="810" width="120" height="80" as="geometry" />
        </mxCell>
        <mxCell id="j4RjR1s959F3z7XplXAv-40" value="BUSCAR PRÁCTICAS" style="ellipse;whiteSpace=wrap;html=1;" vertex="1" parent="1">
          <mxGeometry x="770" y="710" width="120" height="80" as="geometry" />
        </mxCell>
        <mxCell id="j4RjR1s959F3z7XplXAv-41" value="" style="endArrow=none;html=1;rounded=0;entryX=0;entryY=0.5;entryDx=0;entryDy=0;exitX=1;exitY=0.5;exitDx=0;exitDy=0;" edge="1" parent="1" source="j4RjR1s959F3z7XplXAv-32" target="j4RjR1s959F3z7XplXAv-38">
          <mxGeometry width="50" height="50" relative="1" as="geometry">
            <mxPoint x="640" y="740" as="sourcePoint" />
            <mxPoint x="690" y="690" as="targetPoint" />
          </mxGeometry>
        </mxCell>
        <mxCell id="j4RjR1s959F3z7XplXAv-42" value="" style="endArrow=none;html=1;rounded=0;entryX=0;entryY=0.5;entryDx=0;entryDy=0;exitX=1;exitY=0.5;exitDx=0;exitDy=0;" edge="1" parent="1" source="j4RjR1s959F3z7XplXAv-32" target="j4RjR1s959F3z7XplXAv-40">
          <mxGeometry width="50" height="50" relative="1" as="geometry">
            <mxPoint x="690" y="760" as="sourcePoint" />
            <mxPoint x="740" y="710" as="targetPoint" />
          </mxGeometry>
        </mxCell>
        <mxCell id="j4RjR1s959F3z7XplXAv-43" value="" style="endArrow=none;html=1;rounded=0;entryX=0;entryY=0.5;entryDx=0;entryDy=0;exitX=1;exitY=0.5;exitDx=0;exitDy=0;" edge="1" parent="1" source="j4RjR1s959F3z7XplXAv-32" target="j4RjR1s959F3z7XplXAv-39">
          <mxGeometry width="50" height="50" relative="1" as="geometry">
            <mxPoint x="670" y="820" as="sourcePoint" />
            <mxPoint x="720" y="770" as="targetPoint" />
          </mxGeometry>
        </mxCell>
        <mxCell id="j4RjR1s959F3z7XplXAv-44" value="FILTRAR" style="ellipse;whiteSpace=wrap;html=1;" vertex="1" parent="1">
          <mxGeometry x="990" y="660" width="120" height="80" as="geometry" />
        </mxCell>
        <mxCell id="j4RjR1s959F3z7XplXAv-45" value="" style="endArrow=classic;html=1;rounded=0;entryX=1;entryY=0.5;entryDx=0;entryDy=0;exitX=0;exitY=0.5;exitDx=0;exitDy=0;dashed=1;dashPattern=8 8;" edge="1" parent="1" source="j4RjR1s959F3z7XplXAv-44" target="j4RjR1s959F3z7XplXAv-38">
          <mxGeometry width="50" height="50" relative="1" as="geometry">
            <mxPoint x="980" y="840" as="sourcePoint" />
            <mxPoint x="1030" y="790" as="targetPoint" />
          </mxGeometry>
        </mxCell>
        <mxCell id="j4RjR1s959F3z7XplXAv-48" value="&amp;lt;&amp;lt;EXTENDS&amp;gt;&amp;gt;" style="edgeLabel;html=1;align=center;verticalAlign=middle;resizable=0;points=[];" vertex="1" connectable="0" parent="j4RjR1s959F3z7XplXAv-45">
          <mxGeometry x="-0.0626" relative="1" as="geometry">
            <mxPoint x="1" as="offset" />
          </mxGeometry>
        </mxCell>
        <mxCell id="j4RjR1s959F3z7XplXAv-47" value="" style="endArrow=classic;html=1;rounded=0;entryX=1;entryY=0.5;entryDx=0;entryDy=0;exitX=0;exitY=0.5;exitDx=0;exitDy=0;dashed=1;dashPattern=8 8;" edge="1" parent="1" source="j4RjR1s959F3z7XplXAv-44" target="j4RjR1s959F3z7XplXAv-40">
          <mxGeometry width="50" height="50" relative="1" as="geometry">
            <mxPoint x="1010" y="720" as="sourcePoint" />
            <mxPoint x="910" y="670" as="targetPoint" />
          </mxGeometry>
        </mxCell>
        <mxCell id="j4RjR1s959F3z7XplXAv-49" value="&amp;lt;&amp;lt;EXTENDS&amp;gt;&amp;gt;" style="edgeLabel;html=1;align=center;verticalAlign=middle;resizable=0;points=[];" vertex="1" connectable="0" parent="j4RjR1s959F3z7XplXAv-47">
          <mxGeometry x="0.1049" y="3" relative="1" as="geometry">
            <mxPoint x="1" as="offset" />
          </mxGeometry>
        </mxCell>
        <mxCell id="j4RjR1s959F3z7XplXAv-50" value="" style="endArrow=none;html=1;rounded=0;exitX=1;exitY=0.5;exitDx=0;exitDy=0;" edge="1" parent="1" source="j4RjR1s959F3z7XplXAv-44">
          <mxGeometry width="50" height="50" relative="1" as="geometry">
            <mxPoint x="1130" y="670" as="sourcePoint" />
            <mxPoint x="1200" y="460" as="targetPoint" />
          </mxGeometry>
        </mxCell>
        <mxCell id="j4RjR1s959F3z7XplXAv-51" value="ACEPTAR/RECHAZAR" style="ellipse;whiteSpace=wrap;html=1;" vertex="1" parent="1">
          <mxGeometry x="730" y="330" width="140" height="80" as="geometry" />
        </mxCell>
        <mxCell id="j4RjR1s959F3z7XplXAv-52" value="MODIFICAR DATOS" style="ellipse;whiteSpace=wrap;html=1;" vertex="1" parent="1">
          <mxGeometry x="740" y="420" width="120" height="80" as="geometry" />
        </mxCell>
        <mxCell id="j4RjR1s959F3z7XplXAv-53" value="" style="endArrow=none;html=1;rounded=0;exitX=1;exitY=0.5;exitDx=0;exitDy=0;entryX=0;entryY=0.5;entryDx=0;entryDy=0;" edge="1" parent="1" source="j4RjR1s959F3z7XplXAv-12" target="j4RjR1s959F3z7XplXAv-51">
          <mxGeometry width="50" height="50" relative="1" as="geometry">
            <mxPoint x="650" y="440" as="sourcePoint" />
            <mxPoint x="700" y="390" as="targetPoint" />
          </mxGeometry>
        </mxCell>
        <mxCell id="j4RjR1s959F3z7XplXAv-54" value="" style="endArrow=none;html=1;rounded=0;exitX=1;exitY=0.5;exitDx=0;exitDy=0;entryX=0;entryY=0.5;entryDx=0;entryDy=0;" edge="1" parent="1" source="j4RjR1s959F3z7XplXAv-12" target="j4RjR1s959F3z7XplXAv-52">
          <mxGeometry width="50" height="50" relative="1" as="geometry">
            <mxPoint x="650" y="480" as="sourcePoint" />
            <mxPoint x="700" y="430" as="targetPoint" />
          </mxGeometry>
        </mxCell>
        <mxCell id="j4RjR1s959F3z7XplXAv-55" value="" style="endArrow=none;html=1;rounded=0;exitX=1;exitY=0.5;exitDx=0;exitDy=0;" edge="1" parent="1" source="j4RjR1s959F3z7XplXAv-52">
          <mxGeometry width="50" height="50" relative="1" as="geometry">
            <mxPoint x="900" y="480" as="sourcePoint" />
            <mxPoint x="1200" y="460" as="targetPoint" />
          </mxGeometry>
        </mxCell>
        <mxCell id="j4RjR1s959F3z7XplXAv-56" value="" style="endArrow=none;html=1;rounded=0;exitX=1;exitY=0.5;exitDx=0;exitDy=0;" edge="1" parent="1" source="j4RjR1s959F3z7XplXAv-51">
          <mxGeometry width="50" height="50" relative="1" as="geometry">
            <mxPoint x="850" y="490" as="sourcePoint" />
            <mxPoint x="1200" y="460" as="targetPoint" />
          </mxGeometry>
        </mxCell>
        <mxCell id="j4RjR1s959F3z7XplXAv-57" value="AÑADIR PRACTICAS" style="ellipse;whiteSpace=wrap;html=1;" vertex="1" parent="1">
          <mxGeometry x="740" y="510" width="130" height="80" as="geometry" />
        </mxCell>
        <mxCell id="j4RjR1s959F3z7XplXAv-58" value="" style="endArrow=none;html=1;rounded=0;entryX=0;entryY=0.5;entryDx=0;entryDy=0;exitX=1;exitY=0.5;exitDx=0;exitDy=0;" edge="1" parent="1" source="j4RjR1s959F3z7XplXAv-12" target="j4RjR1s959F3z7XplXAv-57">
          <mxGeometry width="50" height="50" relative="1" as="geometry">
            <mxPoint x="630" y="500" as="sourcePoint" />
            <mxPoint x="680" y="450" as="targetPoint" />
          </mxGeometry>
        </mxCell>
        <mxCell id="j4RjR1s959F3z7XplXAv-59" value="" style="endArrow=none;html=1;rounded=0;exitX=1;exitY=0.5;exitDx=0;exitDy=0;" edge="1" parent="1" source="j4RjR1s959F3z7XplXAv-57">
          <mxGeometry width="50" height="50" relative="1" as="geometry">
            <mxPoint x="920" y="560" as="sourcePoint" />
            <mxPoint x="1200" y="460" as="targetPoint" />
          </mxGeometry>
        </mxCell>
        <mxCell id="j4RjR1s959F3z7XplXAv-61" value="&lt;b&gt;&lt;font style=&quot;font-size: 24px;&quot;&gt;COOPERAPP&lt;/font&gt;&lt;/b&gt;" style="text;html=1;strokeColor=none;fillColor=none;align=center;verticalAlign=middle;whiteSpace=wrap;rounded=0;" vertex="1" parent="1">
          <mxGeometry x="775" y="160" width="60" height="30" as="geometry" />
        </mxCell>
      </root>
    </mxGraphModel>
  </diagram>
</mxfile>
